<svg xmlns="http://www.w3.org/2000/svg" viewBox="0 0 25.358 24.024">
  <defs>
    <style>
      .cls-1 {
        fill: #78b93f;
        fill-rule: evenodd;
      }
    </style>
  </defs>
  <path id="Linkedin" class="cls-1" d="M946.964,4367.47v15.54h5.228v-15.54Zm4.753-6.72a2.942,2.942,0,0,0-2.107-.76,3.032,3.032,0,0,0-2.131.76,2.7,2.7,0,0,0-.024,3.84,2.878,2.878,0,0,0,2.091.76h.032a3.012,3.012,0,0,0,2.147-.76,2.467,2.467,0,0,0,.8-1.911A2.614,2.614,0,0,0,951.717,4360.75Zm17.634,8.14a5.645,5.645,0,0,0-4.357-1.78,6.382,6.382,0,0,0-1.814.24,4.165,4.165,0,0,0-1.378.691,6.537,6.537,0,0,0-.9.81,6.407,6.407,0,0,0-.65.88h.032v-2.26h-5.213l.016.75c.01.51.016,2.05.016,4.64s-.011,5.98-.032,10.15h5.213v-8.67a3.721,3.721,0,0,1,.174-1.27,3.288,3.288,0,0,1,1.006-1.34,2.589,2.589,0,0,1,1.672-.54,2.264,2.264,0,0,1,2,.93,4.49,4.49,0,0,1,.641,2.58v8.311H971v-8.91A7.409,7.409,0,0,0,969.351,4368.89Z" transform="translate(-946.163 -4359.487)"/>
</svg>
