<svg xmlns="http://www.w3.org/2000/svg" viewBox="0 0 24.346 22.991">
  <defs>
    <style>
      .cls-1 {
        fill: #78b93f;
        fill-rule: evenodd;
      }
    </style>
  </defs>
  <path id="Twitter" class="cls-1" d="M904.469,4363.64a5.573,5.573,0,0,0,2.194-3.2,9.006,9.006,0,0,1-3.167,1.4,4.531,4.531,0,0,0-7.176-.129,6.074,6.074,0,0,0-1.46,4.1,7.457,7.457,0,0,0,.123,1.33,12.457,12.457,0,0,1-5.739-1.79,14.81,14.81,0,0,1-4.55-4.279,6.636,6.636,0,0,0-.077,5.689,5.613,5.613,0,0,0,1.622,2.07,4.434,4.434,0,0,1-2.256-.74v.07a6.239,6.239,0,0,0,1.136,3.7,4.9,4.9,0,0,0,2.866,2,4.551,4.551,0,0,1-1.313.2,5.558,5.558,0,0,1-.943-.1,5.71,5.71,0,0,0,1.761,2.87,4.474,4.474,0,0,0,2.9,1.16,8.953,8.953,0,0,1-6.2,2.48,8.74,8.74,0,0,1-1.206-.08,12.475,12.475,0,0,0,7.664,2.61,12.819,12.819,0,0,0,4.99-.98,12.416,12.416,0,0,0,3.986-2.62,17.272,17.272,0,0,0,2.851-3.78,18.279,18.279,0,0,0,1.784-4.47,18.963,18.963,0,0,0,.587-4.66q0-.5-.016-.75a11.655,11.655,0,0,0,2.5-3,8.87,8.87,0,0,1-2.874.9h0Z" transform="translate(-882.989 -4360.01)"/>
</svg>
